<?xml version="1.0" encoding="utf-8"?>
<!-- Generator: Adobe Illustrator 15.0.0, SVG Export Plug-In . SVG Version: 6.00 Build 0)  -->
<!DOCTYPE svg PUBLIC "-//W3C//DTD SVG 1.0//EN" "http://www.w3.org/TR/2001/REC-SVG-20010904/DTD/svg10.dtd">
<svg version="1.0" id="Calque_1" xmlns="http://www.w3.org/2000/svg" xmlns:xlink="http://www.w3.org/1999/xlink" x="0px" y="0px"
	 width="18.292px" height="26.125px" viewBox="0 0 18.292 26.125" enable-background="new 0 0 18.292 26.125" xml:space="preserve">
<g>
	<path fill="#E52420" stroke="#FFFFFF" stroke-miterlimit="10" d="M9.154,25.53c-1.021,0-1.848-0.827-1.848-1.848v-11.55
		c0-1.021,0.828-1.848,1.848-1.848s1.848,0.828,1.848,1.848v11.55C11.002,24.703,10.174,25.53,9.154,25.53z"/>
</g>
<g>
	<path fill="#E52420" stroke="#FFFFFF" stroke-miterlimit="10" d="M9.154,0.583c-4.756,0-8.612,3.856-8.612,8.612
		c0,3.785,2.446,6.992,5.84,8.147V13.25c-1.293-0.887-2.145-2.372-2.145-4.055c0-2.711,2.206-4.917,4.917-4.917
		c2.71,0,4.915,2.206,4.915,4.917c0,1.682-0.851,3.168-2.143,4.055v4.093c3.395-1.155,5.84-4.362,5.84-8.147
		C17.766,4.439,13.91,0.583,9.154,0.583z"/>
</g>
</svg>
